<svg id="Layer_1" enable-background="new 0 0 512.565 512.565" height="512" viewBox="0 0 512.565 512.565" width="512" xmlns="http://www.w3.org/2000/svg"><g><g><g><g><path d="m285.908 16.607c-15.971 60.868-99.13 60.296-114.687-.397-1.633-6.373-8.279-10.075-14.604-8.25-86.733 25.021-149.117 57.152-149.117 153.833v33.534h76.434v272.254h287.841v-272.254h76.434v-33.534c0-96.134-61.677-127.926-147.644-153.343-6.312-1.867-12.987 1.792-14.657 8.157z" fill="#f5ebeb"/></g><g fill="#ede1e1"><path d="m300.566 8.45c-6.261-1.851-12.871 1.736-14.609 8.003 72.46 24.536 122.253 58.967 122.253 145.34v33.534h40v-33.534c0-96.134-61.677-127.926-147.644-153.343z"/><path d="m331.776 195.327h40v272.254h-40z"/></g><g><path d="m227.855 96.297c47.303 0 86.113-36.249 90.185-82.462-5.706-1.84-11.54-3.63-17.491-5.39-6.306-1.865-12.973 1.806-14.641 8.163-15.971 60.866-99.128 60.294-114.686-.397-1.633-6.369-8.274-10.078-14.595-8.254-6.463 1.865-12.79 3.771-18.968 5.738 4.006 46.28 42.845 82.602 90.196 82.602z" fill="#fff5f5"/></g></g><g><g><g><path d="m474.249 377.592c1.342-5.317 2.013-10.895 1.88-16.644-.79-34.249-29.194-61.372-63.442-60.583-7.527.174-14.708 1.683-21.326 4.293-8.458-10.542-21.549-17.171-36.104-16.835-24.813.572-44.464 21.151-43.892 45.964.136 5.915 1.421 11.532 3.618 16.656-23.074 8.509-39.292 30.935-38.694 56.897.754 32.681 27.858 58.564 60.539 57.81 4.17-.096 8.227-.625 12.134-1.536 9.052 18.405 28.178 30.881 50.033 30.378 21.141-.487 39.17-12.993 47.743-30.83 4.548 1.42 9.397 2.142 14.425 2.026 24.813-.572 44.464-21.151 43.892-45.964-.452-19.515-13.279-35.829-30.806-41.632z" fill="#fff5f5"/><g fill="#faeded"><path d="m351.36 304.659c6.618-2.61 13.799-4.119 21.326-4.293 5.716-.132 11.264.53 16.553 1.857-8.445-9.109-20.589-14.708-33.984-14.399-6.822.157-13.25 1.834-18.978 4.689 5.863 2.92 11.014 7.073 15.083 12.146z"/><path d="m474.249 377.592c1.342-5.317 2.013-10.895 1.88-16.644-.79-34.249-29.194-61.372-63.442-60.583-6.491.15-12.722 1.298-18.559 3.283 23.929 8.156 41.385 30.555 42.002 57.3.133 5.749-.538 11.327-1.88 16.644 17.527 5.802 30.354 22.117 30.804 41.632.572 24.813-19.079 45.391-43.892 45.964-5.027.116-9.877-.607-14.425-2.026-5.889 12.252-16.239 21.988-28.995 27.042 6.564 2.603 13.747 3.961 21.252 3.788 21.141-.488 39.17-12.993 47.743-30.83 4.548 1.42 9.397 2.142 14.425 2.026 24.813-.572 44.464-21.151 43.892-45.964-.451-19.514-13.278-35.829-30.805-41.632z"/></g><path d="m455.561 457.199c-7.186 62.716-116.939 64.676-125.432.653l38.544 11.759 23.45-35.278 22.934 35.282z" fill="#ba8d3f"/></g></g></g></g><g><path d="m490.781 377.718c-2.516-1.814-5.175-3.396-7.952-4.731.625-4.041.892-8.127.798-12.211-.884-38.328-32.781-68.83-71.113-67.907-6.457.148-12.791 1.174-18.894 3.056-4.213-4.288-9.067-7.755-14.345-10.333v-82.764h68.934c4.142 0 7.5-3.357 7.5-7.5v-33.534c0-46.961-14.43-82.553-44.116-108.809-30.4-26.887-70.63-40.411-108.902-51.728-10.225-3.024-21.325 3.106-24.038 13.446-6.042 23.028-26.005 39.791-50.099 39.791-18.363-.053-42.495-10.599-50.069-40.147-2.652-10.35-13.708-16.552-23.948-13.594-32.737 9.444-66.037 20.449-94.468 39.694-8.03 5.436.379 17.859 8.408 12.422 11.337-7.674 28.523-17.561 62.972-29.215 3.824 20.746 14.26 39.734 29.969 54.212 37.009 34.109 95.761 34.151 132.817.049 15.705-14.453 26.153-33.414 30-54.136 28.29 9.627 56.742 22.153 77.419 40.441 26.644 23.565 39.053 54.569 39.053 97.572v26.034h-61.472v-42.168c0-9.697-15-9.697-15 0l.038 135.26c-3.01-.456-6.08-.669-9.192-.594-28.907.667-51.883 24.728-51.217 53.635.097 4.209.69 8.347 1.77 12.366-22.889 11.435-37.445 35.175-36.846 61.187.499 21.648 11.174 40.737 27.56 52.568h-204.913v-314.421c0-9.697-15-9.697-15 0v42.168h-61.435v-26.034c0-35.533 8.727-63.342 26.678-85.016 6.186-7.468-5.367-17.039-11.552-9.568-20.272 24.476-30.126 55.414-30.126 94.584v33.534c0 4.143 3.358 7.5 7.5 7.5h68.935v264.754c0 4.143 3.358 7.5 7.5 7.5h243.271c3.882 8.818 9.919 16.469 17.914 22.57 16.489 12.585 39.016 16.854 59.277 14.099 9.609-1.305 7.589-16.175-2.021-14.863-17.825 2.425-35.826-1.749-48.156-11.159-6.03-4.603-10.493-10.211-13.347-16.756l25.612 7.813c3.168.967 6.599-.262 8.435-3.021l17.134-25.776 16.716 25.716c1.823 2.806 5.286 4.063 8.486 3.083l27.775-8.515c-2.555 6.046-6.538 11.344-11.916 15.832-7.446 6.212 2.165 17.728 9.611 11.516 7.59-6.334 13.206-14.116 16.662-22.933 29.214.418 53.838-24.402 53.164-53.635-.383-16.564-8.318-31.629-21.771-41.334zm-206.7-310.841c-31.326 28.83-81.183 28.818-112.495-.041-13.794-12.713-22.772-29.528-25.701-47.843 4.069-1.258 8.324-2.533 12.811-3.828 2.588-.498 4.341.471 5.26 2.906 7.58 29.573 33.643 51.334 64.557 51.423 31.062 0 56.834-21.198 64.65-50.984.934-2.427 2.693-3.383 5.277-2.868 3.748 1.108 7.546 2.257 11.371 3.448-2.949 18.297-11.937 35.094-25.73 47.787zm178.955 390.707c-.543-5.84-3.768-8.359-9.674-7.556l-35.099 10.76-19.853-30.542c-2.943-4.526-9.551-4.552-12.534-.064l-20.358 30.626-33.202-10.129c-4.965-.759-8.125 1.052-9.48 5.435-22.248-5.526-38.505-25.257-39.051-48.946-.509-22.078 13.07-42.046 33.791-49.687 4.294-2.1 5.727-5.431 4.299-9.992-1.889-4.406-2.903-9.074-3.014-13.874-.476-20.639 15.928-37.817 36.567-38.293 11.472-.278 22.886 5.063 30.081 14.031 2.057 2.564 5.542 3.489 8.602 2.283 6.143-2.422 13.361-3.786 20.023-3.786 29.486 0 53.813 23.64 54.496 53.271.113 4.915-.443 9.84-1.654 14.636-.962 3.813 1.183 7.721 4.915 8.956 14.752 4.883 25.306 19.202 25.663 34.684.461 19.951-14.854 36.666-34.518 38.187z"/><path d="m410.961 325.398c-9.697 0-9.697 15 0 15 13.621 0 24.702 11.081 24.702 24.701 0 9.697 15 9.697 15 0 0-21.891-17.81-39.701-39.702-39.701z"/></g></g></svg>