<svg viewBox="0 0 2000 2000" xmlns="http://www.w3.org/2000/svg"><g id="Fashion_shopping" data-name="Fashion shopping"><path d="m1098.1 1904.07a4 4 0 0 1 -4-4v-1483.92a51.25 51.25 0 0 1 51.19-51.15h667.53a51.24 51.24 0 0 1 51.18 51.15v1477.67a4 4 0 0 1 -8 0v-1477.67a43.23 43.23 0 0 0 -43.18-43.15h-667.53a43.24 43.24 0 0 0 -43.19 43.19v1483.88a4 4 0 0 1 -4 4z" fill="#68003c"/><path d="m1860 507.91h-761.9a4 4 0 0 1 0-8h761.9a4 4 0 0 1 0 8z" fill="#68003c"/><path d="m1860 1791.38h-761.9a4 4 0 0 1 0-8h761.9a4 4 0 1 1 0 8z" fill="#68003c"/><path d="m324.71 119.1c52.36 0 81.86 59.25 52.15 101l-7.5 27.48c-6.12 22.41-24.19 37.06-43.22 37.06h-1.94c-19.56 0-38.14-15.08-44.46-38.24l-7.18-26.3c-29.64-41.66-.34-101 52.15-101z" fill="#e87700"/><path d="m297.17 255.88h55.08v86.81h-55.08z" fill="#e87700" transform="matrix(-1 0 0 -1 649.42 598.57)"/><circle cx="346.43" cy="212.84" fill="#262246" r="5.44"/><circle cx="305.13" cy="212.84" fill="#262246" r="5.44"/><path d="m328.93 242-7.76-.11a2 2 0 0 1 .06-4l7.7.11a.7.7 0 0 0 .69-.85l-4.62-21.21a2 2 0 0 1 3.92-.85l4.6 21.16a4.7 4.7 0 0 1 -4.59 5.75z" fill="#262246"/><path d="m361.05 195c-7.81-7.41-23.1-2.69-23.24.43-.06 1.18 1.43 2.12 1.62 2.23 3.1 1.91 6.28-1.39 11.3-1.71 7.33-.46 12.42 5.8 13.44 4.63.64-.75-1.06-3.58-3.12-5.58z" fill="#262246"/><path d="m290.93 195c7.81-7.41 23.09-2.69 23.24.43.06 1.18-1.43 2.12-1.62 2.23-3.1 1.91-6.28-1.39-11.3-1.71-7.34-.46-12.42 5.8-13.44 4.63-.65-.75 1.06-3.58 3.12-5.58z" fill="#262246"/><path d="m308.59 245.34a2 2 0 0 1 4-.55c1 7.2 8.89 10.58 14.61 6a2 2 0 1 1 2.49 3.13 12.94 12.94 0 0 1 -21.1-8.58z" fill="#262246"/><path d="m296.49 276.23a2 2 0 0 1 -.23-2.83 2 2 0 0 1 2.82-.22 39.76 39.76 0 0 0 51.41.3 2 2 0 0 1 2.55 3.08 43.79 43.79 0 0 1 -56.55-.33z" fill="#68003c"/><path d="m484.13 683.19a2825.48 2825.48 0 0 1 71.67 609.4q-3.94 255.09-7.88 510.18l-62.25.55c-43-169.27-60.4-340.94-52-512.7q-49.46-277.11-98.92-554.22z" fill="#2351fb"/><path d="m483.41 1784.55q-14.37 57.36-28.73 114.74h309.26c10.08-15.79.9-36.12-18.39-37.43a558 558 0 0 1 -199.11-79.28z" fill="#68003c"/><path d="m262.3 1766.65a425.53 425.53 0 0 0 -48.59 132.64h208.14a278.77 278.77 0 0 1 -72.85-132.64z" fill="#68003c"/><path d="m331.63 312 121.72-7a73.83 73.83 0 0 1 67.65 35.85q92.9 155.45 185.81 310.91l-89.62 49.24a1576.75 1576.75 0 0 1 -184.83-294.81z" fill="#fdc500"/><path d="m757.23 376.89-146.23 314.26c4.38 9 24.53 48.25 57.13 50.56 19.63 1.39 35-11.23 41.36-16.42 61.1-50 106.49-301.49 111.81-331.65z" fill="#fdc500"/><path d="m534.77 971.2 46.61 832.12-136.1-3.7-11.79-345.4z" fill="#2351fb"/><path d="m275 672.34c-39.47 104.93-49.12 178.51-50.15 260.44-1 79.67 6.6 61.35 11.82 350v512.15l130 2.95 18.57-695.53 41.88-255-13.52-156.53z" fill="#2351fb"/><path d="m192.75 375.43 123.51-63.43 157.08 23.1 12.66 407.46a328.76 328.76 0 0 1 -219.45 0z" fill="#fff"/><path d="m297.79 321.47-14.55 6.88s14.64 27.94 48.39 23 33.08-41.28 33.08-41.28l-12.46.72v-8.39l-55.08 5.78z" fill="#e87700"/><path d="m297.17 293.17a36.26 36.26 0 0 0 -17.43 18.45l-9.4 22.23 18 52.15v-57.65l9.47-6.88z" fill="#fdc500"/><path d="m352.25 288.25v22.55l18.19 70.62 5.63-72-8.65-13a18.2 18.2 0 0 0 -15.17-8.17z" fill="#fdc500"/><path d="m271 215.52 5.26-34.37s19.68.73 21-32.42c0 0 40 17.4 58.73-2.3 0 0 5.81 25.61 22.77 29.22v42.63l12.53.05q3.71-16.33 7.54-32.75c7.55 3 13.74-4.33 16.25-12.07a6.54 6.54 0 0 1 -4.63-.16c-4.89-2.36-3-11.76-4.64-22.33-.42-2.7-3.66-23.9-17.73-30.86-2.71-1.34-9.05-3.74-19.29-1.06a12.66 12.66 0 0 0 9.44-17.32c-47.37 15.06-71.1-9.3-91.92 1-5.78 2.86-13.21 9.11-18.39 24.63-23.46 7.79-31 33.53-18.38 53.84l7.46 33.87z" fill="#68003c"/><ellipse cx="382.12" cy="221.66" fill="#e87700" rx="16.79" ry="14.34" transform="matrix(.464 -.886 .886 .464 8.54 457.44)"/><path d="m378 228.85a4.55 4.55 0 0 0 0-8.68 2 2 0 0 1 .66-3.89h10.75a2 2 0 0 1 0 4h-5.37a8.51 8.51 0 0 1 -4.74 12.35c-2.5.88-3.76-2.94-1.3-3.78z" fill="#262246"/><ellipse cx="267.5" cy="221.66" fill="#e87700" rx="14.34" ry="16.79" transform="matrix(.886 -.464 .464 .886 -72.29 149.3)"/><path d="m270.3 232.63a8.51 8.51 0 0 1 -4.73-12.35h-5.38a2 2 0 0 1 0-4h10.81a2 2 0 0 1 .65 3.89 4.56 4.56 0 0 0 0 8.68 2 2 0 0 1 -1.35 3.78z" fill="#262246"/><path d="m390.36 1059 10.31-174a2 2 0 0 1 4 .24l-10.31 174a2 2 0 0 1 -4-.24z" fill="#68003c"/><path d="m1677.64 615.48a4 4 0 0 1 -4-4v-29.61a12.82 12.82 0 0 1 12.8-12.81h3.49a15.49 15.49 0 0 0 15.47-15.47v-36.44c-3.23-13.75-15.87-23.43-29.57-22.58-12.46.78-23.08 10-26 22.58v40.63a4 4 0 0 1 -8 0c0-44.36 0-41.31.09-41.92 3.5-16.23 17.22-28.27 33.38-29.27 17.73-1.07 34.06 11.47 38 29.26.14.62.1-1.89.1 37.74a23.5 23.5 0 0 1 -23.47 23.47h-3.49a4.81 4.81 0 0 0 -4.8 4.81v29.61a4 4 0 0 1 -4 4z" fill="#68003c"/><path d="m1807 702.61h-261.44c-11.58 0-15.86-13.24-6.43-18.79 129.09-76 132.6-78.34 132-77.77a12.82 12.82 0 0 1 12.95 0l129.43 77.78c9.35 5.64 5.03 18.78-6.51 18.78zm-129.43-90.28c-2.07 0 6.46-4.59-134.41 78.38-2.58 1.52-.62 3.9 2.38 3.9h261.46c3 0 5-2.35 2.4-3.89-138.4-83.18-129.78-78.39-131.81-78.39z" fill="#68003c"/><ellipse cx="1677.63" cy="602.01" fill="#68003c" rx="18.1" ry="14.92"/><path d="m1610.35 641.57c1.27 3.54 11.51 30.79 40 40 30.63 9.88 70.19-7.42 84.19-44.74l64.6 12.59a57.59 57.59 0 0 1 34.18 20.84l89.23 113.09c-17.11 26.49-43.36 45.78-75.82 52.25l27.67 322.75c-121.41 31.48-244.32 34.63-363.74 9.22l9.23-311.09a177.55 177.55 0 0 1 -67.82-45l70.07-123.1a40 40 0 0 1 18.86-16.93z" fill="#fdc500"/><g fill="#68003c"><path d="m1485 615.48a4 4 0 0 1 -4-4v-29.61a12.82 12.82 0 0 1 12.81-12.81h3.48a15.49 15.49 0 0 0 15.47-15.47v-36.44c-3.22-13.75-15.87-23.43-29.56-22.58-12.46.78-23.08 10-26 22.58v40.63a4 4 0 0 1 -8 0c0-44.36 0-41.31.09-41.92 3.49-16.23 17.22-28.27 33.37-29.27 17.75-1.07 34.06 11.47 38 29.26.14.62.09-1.89.09 37.74a23.49 23.49 0 0 1 -23.47 23.47h-3.48a4.82 4.82 0 0 0 -4.81 4.81v29.61a4 4 0 0 1 -3.99 4z"/><path d="m1614.39 702.61h-261.46c-11.57 0-15.86-13.24-6.43-18.79 129.09-76 132.6-78.34 132-77.77a12.84 12.84 0 0 1 13 0l129.42 77.78c9.32 5.64 4.99 18.78-6.53 18.78zm-129.39-90.28c-2.07 0 6.46-4.59-134.41 78.38-2.59 1.52-.62 3.9 2.37 3.9h261.46c3 0 5-2.35 2.4-3.89-138.17-83-129.75-78.39-131.82-78.39z"/><ellipse cx="1485.01" cy="602.01" rx="18.1" ry="14.92"/><path d="m1417.73 641.57c1.26 3.54 11.51 30.79 40 40 30.64 9.88 70.19-7.43 84.19-44.74l64.6 12.59a57.57 57.57 0 0 1 34.17 20.84l89.24 113.09c-17.11 26.49-43.37 45.78-75.82 52.25l27.66 322.75c-121.4 31.48-244.32 34.63-363.73 9.22l9.22-311.09a177.52 177.52 0 0 1 -67.81-45l70.06-123.1a40 40 0 0 1 18.94-16.94z"/><path d="m1293.09 615.48a4 4 0 0 1 -4-4v-29.61a12.82 12.82 0 0 1 12.81-12.81h3.48a15.49 15.49 0 0 0 15.47-15.47v-36.44c-3.23-13.75-15.87-23.43-29.57-22.58-12.46.78-23.08 10-26 22.58v40.63a4 4 0 0 1 -8 0c0-44.36 0-41.31.09-41.92 3.5-16.23 17.22-28.27 33.38-29.27 17.73-1.07 34.06 11.47 38 29.26.14.62.1-1.89.1 37.74a23.5 23.5 0 0 1 -23.47 23.47h-3.48a4.81 4.81 0 0 0 -4.81 4.81v29.61a4 4 0 0 1 -4 4z"/><path d="m1422.47 702.61h-261.47c-11.58 0-15.86-13.24-6.43-18.79 129.09-76 132.6-78.34 132-77.77a12.82 12.82 0 0 1 13 0l129.43 77.82c9.31 5.6 5 18.74-6.53 18.74zm-129.47-90.28c-2.07 0 6.46-4.59-134.4 78.38-2.6 1.53-.62 3.9 2.37 3.9h261.46c3 0 5-2.34 2.4-3.89-138.1-83-129.68-78.39-131.83-78.39z"/><ellipse cx="1293.09" cy="602.01" rx="18.1" ry="14.92"/></g><path d="m1225.8 641.57c1.27 3.54 11.51 30.79 40 40 30.65 9.88 70.2-7.43 84.19-44.74l64.6 12.59a57.59 57.59 0 0 1 34.18 20.84l89.23 113.05c-17.12 26.49-43.37 45.78-75.83 52.25l27.67 322.75c-121.4 31.47-244.32 34.63-363.73 9.22l9.22-311.09a177.55 177.55 0 0 1 -67.82-45l70.07-123.1a40 40 0 0 1 18.93-16.94z" fill="#e87700"/><path d="m506.74 783.33a1151.24 1151.24 0 0 1 -281.94 3.94v-36.77a902.1 902.1 0 0 0 278-6.57q1.97 19.7 3.94 39.4z" fill="#68003c"/><path d="m287.67 326.67-101.85 38.71a55.35 55.35 0 0 0 -34.39 39.76q-34.3 154.41-68.6 308.86a60.79 60.79 0 0 0 12 51.37l145.8 180.54 47.69-31.72-105.47-195.46c83.47-328.47 61-245.16 104.82-392.06z" fill="#fdc500"/><path d="m283.24 328.35 51.51 517.1a348 348 0 0 1 -124.65 10.83v-204.85l-32.5-265.92 26.26-23.31z" fill="#fdc500"/><path d="m364.71 310.08q20.29 258.3 48.29 526.51a284 284 0 0 0 127-10.84q-22.65-122.61-45.31-245.24l-8.69-253.84z" fill="#fdc500"/><path d="m393.17 794.86h-31.73a11.51 11.51 0 0 1 -11.5-11.5v-14.36a11.51 11.51 0 0 1 11.5-11.5h31.73a11.51 11.51 0 0 1 11.5 11.5v14.34a11.51 11.51 0 0 1 -11.5 11.52zm-31.73-33.34a7.52 7.52 0 0 0 -7.5 7.5v14.34a7.52 7.52 0 0 0 7.5 7.5h31.73a7.52 7.52 0 0 0 7.5-7.5v-14.36a7.52 7.52 0 0 0 -7.5-7.5z" fill="#e87700"/><path d="m402.67 778.19h-25.36a2 2 0 1 1 0-4h25.36a2 2 0 1 1 0 4z" fill="#e87700"/><path d="m236.22 822.06 51.21 55.16 46 34.14c5.33 4.12 7 11.27 4.26 16.75-3.16 6.36-11.64 9.23-18.71 5.58l-24.98-15.11a261.89 261.89 0 0 1 -46 64.35q-10.35-25.77-20.68-51.54l-29.24-38.14z" fill="#e87700"/><path d="m182.85 718.73 84.89 133.54q-30.54 38.73-61.07 77.48l-111.79-164.4z" fill="#fdc500"/><path d="m235.59 987.6c28.4-9.47 56.32-69.25 56.6-69.86a2 2 0 0 1 3.63 1.68c-1.17 2.53-28.95 62-59 72a2 2 0 0 1 -1.23-3.82z" fill="#68003c"/><path d="m741 411.85 38.92-87.65 13.25-45.78a21.94 21.94 0 0 1 13-14.31l36.25-14.27a10.79 10.79 0 0 1 7.58 20.16l-25.8 21.21q24 28.8 48.1 57.61l-41 22.83-17.26 60.24z" fill="#e87700"/><path d="m732.69 429.62 33.41-74.39 82.61 45.1-120 282.86c6.07-246.42 5.62-197.84 3.98-253.57z" fill="#fdc500"/><path d="m492.36 513.85a2 2 0 0 1 -2-1.93l-4.36-125.85a2 2 0 0 1 4-.14l4.35 125.86a2 2 0 0 1 -1.99 2.06z" fill="#68003c"/><path d="m206.8 626.46a2 2 0 0 1 -2-1.7l-29.18-192.57a2 2 0 0 1 4-.6l29.2 192.57a2 2 0 0 1 -2.02 2.3z" fill="#68003c"/><path d="m266.09 409.75a2 2 0 0 1 -2-2.11l4.25-73.91a2 2 0 1 1 4 .24l-4 69.48 18.75-14.67a2 2 0 0 1 2.46 3.15c-24.25 18.98-22.47 17.82-23.46 17.82z" fill="#68003c"/><path d="m392.82 395.31c-.72 0 1.17.88-23.32-12.13a2 2 0 0 1 1.88-3.53l18.62 9.91-15.92-79.73a2 2 0 1 1 3.92-.83l16.75 83.87a2 2 0 0 1 -1.93 2.44z" fill="#68003c"/><path d="m268.54 851c-1.59 0 2.27 5-60.1-88.27a2 2 0 1 1 3.32-2.23l58.44 87.39a2 2 0 0 1 -1.66 3.11z" fill="#68003c"/><path d="m182.85 720.73h-70.73a2 2 0 0 1 0-4h70.73a2 2 0 1 1 0 4z" fill="#68003c"/><path d="m664.65 703a2 2 0 0 1 -2-2.29l15.78-107.91a2 2 0 0 1 4 .58l-15.8 107.91a2 2 0 0 1 -1.98 1.71z" fill="#68003c"/><path d="m952.38 1529.52h299.62a2888.69 2888.69 0 0 1 21.31 370.55h-362.45a1878.87 1878.87 0 0 0 41.52-370.55z" fill="#2351fb"/><path d="m1155.16 1560h-.08a4 4 0 0 1 -3.92-4.08c2.87-132.7-126.49-124.65-115.61-95.8 14 37.21 7.72 87.08 7.44 89.18a4 4 0 1 1 -7.93-1c.06-.5 6.32-50-7-85.33-16.66-44.2 134.25-52.27 131.1 93.15a4 4 0 0 1 -4 3.88z" fill="#2351fb"/><path d="m1184.65 1901.35a2 2 0 0 1 -2-2.12l21.66-369.83a2 2 0 0 1 4 .24l-21.42 365.81 36.7-24.63 6-341.34a2 2 0 0 1 4 .07c-6.45 366.9-5.55 343.11-6.9 344-44.23 29.68-41.12 27.8-42.04 27.8z" fill="#68003c"/><path d="m1273.35 1902.07c-.84 0 2.4 1.73-48.8-28.44a2 2 0 1 1 2-3.45l47.79 28.17a2 2 0 0 1 -.99 3.72z" fill="#68003c"/><path d="m796.23 1495.73h327a3151.87 3151.87 0 0 1 23.25 404.34h-395.56a2050.27 2050.27 0 0 0 45.31-404.34z" fill="#fdc500"/><path d="m1017.5 1528.62h-.09a4 4 0 0 1 -3.91-4.08c1.67-77.08-37.08-105.9-60.32-116.22-26.63-11.83-53.83-9-63.76.35-3.52 3.33-4.43 7.08-2.78 11.46 15.28 40.52 8.4 94.84 8.1 97.13a4 4 0 1 1 -7.93-1c.07-.54 6.91-54.65-7.65-93.27-17.94-47.57 145.76-56.34 142.34 101.76a4 4 0 0 1 -4 3.87z" fill="#fdc500"/><path d="m1049.67 1901.29a2 2 0 0 1 -2-2.12l23.63-403.55a2 2 0 0 1 4 .23l-23.4 399.53 40.43-27.13 6.55-372.55a2 2 0 1 1 4 .07c-7.06 401.68-6.16 374.36-7.46 375.22-48.2 32.35-44.81 30.3-45.75 30.3z" fill="#68003c"/><path d="m1146.46 1902.07c-.84 0 2.64 1.87-53.15-31a2 2 0 1 1 2-3.45l52.14 30.74a2 2 0 0 1 -.99 3.71z" fill="#68003c"/><path d="m848.71 399.09a4 4 0 0 1 -4-4v-28.46a4.47 4.47 0 0 0 -4.47-4.47h-3.34a22.74 22.74 0 0 1 -22.72-22.71c0-38 0-35.7.09-36.32 3.77-17.17 19.56-29.32 36.66-28.25 15.6 1 28.85 12.6 32.22 28.27.14.6.09-2.89.09 40.33a4 4 0 0 1 -8 0v-39.05c-2.76-12-12.9-20.82-24.81-21.56-13.06-.81-25.16 8.43-28.25 21.57v35a14.73 14.73 0 0 0 14.72 14.71h3.34a12.48 12.48 0 0 1 12.47 12.47v28.46a4 4 0 0 1 -4 4.01z" fill="#68003c"/><path d="m975.67 482.84h-251.33c-11.22 0-15.45-12.83-6.34-18.3l124.41-74.76c6.42-3.86 13 0 12.6 0l126.92 74.76c9.19 5.36 5.07 18.3-6.26 18.3zm-253.55-11.44c-2.33 1.4-.45 3.44 2.22 3.44h251.33c1.91 0 3-.92 3.25-1.77.38-1.37 7.59 3.4-128-76.44-5.76 0 16.08-12.31-128.8 74.77z" fill="#68003c"/><ellipse cx="848.71" cy="385.99" fill="#68003c" rx="17.4" ry="14.34"/><path d="m913.39 424c-23.87 56.12-90.54 55.83-119.34-4.59l-62.05 12.11a55.4 55.4 0 0 0 -32.85 20l-85.78 108.7c16.45 25.47 41.69 44 72.88 50.23l-26.64 310.28c116.7 30.27 234.85 33.27 349.64 8.86l-8.86-299a170.57 170.57 0 0 0 65.18-43.2l-67.35-118.39a38.44 38.44 0 0 0 -18.22-16.27z" fill="#2351fb"/><path d="m848.33 279.88a10.12 10.12 0 1 1 6.53 19.12 9.36 9.36 0 0 1 6 17.69 9.4 9.4 0 0 1 9.61 4.52c2.19 4 .69 9.66-3.84 12.44a8.72 8.72 0 0 1 8.77 3.81c2.17 3.66.89 9.07-3.45 11.82l-45.31 8.86a7.88 7.88 0 0 1 -3.26-15.38c-8.63-.76-11.21-11.76-3.38-16.04-7.28-2.93-9.78-11.66-3.67-17.29-8.31-2.23-11.44-12-4.92-18.22z" fill="#e87700"/><path d="m813.05 310.29c-.27-.14-6.5-3.54-6.93-10.59-.31-5.17 3.12-9.93 4.69-10.4l10.47-3.21a2 2 0 0 1 1.17 3.82l-10 3.06a9.13 9.13 0 0 0 -2.38 6.49c.29 4.83 4.77 7.27 4.81 7.3a2 2 0 0 1 -1.83 3.53z" fill="#68003c"/><path d="m814.19 323.73a2 2 0 0 1 -1.82-1.16c-3.8-8.25 2.3-14.32 2.56-14.58.59-.56-2.07.3 39.41-10.88a2 2 0 0 1 1 3.87l-38 10.23a9 9 0 0 0 -1.4 9.68 2 2 0 0 1 -1.75 2.84z" fill="#68003c"/><path d="m820 328.72a2 2 0 0 1 -.48-3.94l40.89-10a2 2 0 1 1 1 3.89c-43.73 10.68-41.02 10.05-41.41 10.05z" fill="#68003c"/><path d="m821.86 345.49a2 2 0 0 1 -.43-3.95l44.79-9.8a2 2 0 0 1 .86 3.91c-47.46 10.35-44.82 9.84-45.22 9.84z" fill="#68003c"/><path d="m844.25 356.74a2 2 0 0 1 -.38-4l21.86-4.28a2 2 0 0 1 .77 3.92c-21.01 4.16-21.83 4.36-22.25 4.36z" fill="#68003c"/><path d="m824.43 360.09c-7.2-.89-8.79-6.23-8.63-8.93a2 2 0 0 1 2.12-1.87 2 2 0 0 1 1.88 2.1c0 .69.11 4.11 5.12 4.73 2.63.33 2.13 4.34-.49 3.97z" fill="#68003c"/><circle cx="923.97" cy="563.94" fill="#fff" r="44.73"/></g></svg>