<svg id="Layer_1" height="512" viewBox="0 0 512 512" width="512" xmlns="http://www.w3.org/2000/svg" data-name="Layer 1"><g fill="#2ecc71"><path d="m203.209 358.956-78.759-.14 33.875-58.675 18.153 10.477a10.667 10.667 0 0 0 15.344-12.92l-28.414-77.252a10.663 10.663 0 0 0 -11.826-6.828l-81.108 14.018a10.667 10.667 0 0 0 -3.519 19.747l18.135 10.475-43.09 74.642a73.9 73.9 0 0 0 63.874 110.849l97.265.171h.039a21.333 21.333 0 0 0 21.322-21.33v-41.9a21.363 21.363 0 0 0 -21.291-21.334z"/><path d="m469.93 332.907-48.682-83.994a21.366 21.366 0 0 0 -29.124-7.777l-36.285 20.951a21.334 21.334 0 0 0 -7.791 29.172l39.418 68.009-68.11-.118v-20.8a10.666 10.666 0 0 0 -18.861-6.828l-52.695 63.233a10.667 10.667 0 0 0 0 13.657l52.695 63.234a10.667 10.667 0 0 0 18.86-6.829v-21.1l86.515.15h.145a73.1 73.1 0 0 0 63.975-36.944 73.228 73.228 0 0 0 -.059-74.017z"/><path d="m150.994 186.386 36.294 20.944a21.359 21.359 0 0 0 29.137-7.811l39.144-67.8 34.191 59-17.821 10.281a10.667 10.667 0 0 0 3.516 19.748l81.109 14.017a10.658 10.658 0 0 0 11.827-6.829l28.409-77.247a10.666 10.666 0 0 0 -15.345-12.919l-18.455 10.661-43.513-75.066a73.193 73.193 0 0 0 -63.964-36.849h-.035a73.156 73.156 0 0 0 -63.934 36.95l-48.372 83.777a21.335 21.335 0 0 0 7.813 29.144z"/></g><path d="m203.209 358.956-78.759-.14-24.934 43.184c-10.957 18.978-15.4 40.765 19.771 41.372l83.847.147h.039a21.333 21.333 0 0 0 21.327-21.329v-41.9a21.363 21.363 0 0 0 -21.291-21.334z" fill="#105e30" opacity=".25"/><path d="m462.449 320-41.2-71.087a21.366 21.366 0 0 0 -29.124-7.777l-36.285 20.951a21.334 21.334 0 0 0 -7.791 29.172l39.418 68.009h49.868c22.255.001 43.665-7.268 25.114-39.268z" fill="#105e30" opacity=".25"/><path d="m184.44 85.785-41.258 71.457a21.335 21.335 0 0 0 7.813 29.144l36.294 20.944a21.359 21.359 0 0 0 29.137-7.811l39.144-67.8-24.935-43.187c-11.053-19.146-27.898-33.97-46.195-2.747z" fill="#105e30" opacity=".25"/></svg>