<svg id="Layer_1" data-name="Layer 1" xmlns="http://www.w3.org/2000/svg" viewBox="0 0 159.09 69.51"><defs><style>.cls-1,.cls-2{fill:none;stroke:#7d4e24;stroke-miterlimit:10;stroke-width:2.32px;}.cls-1{stroke-linecap:round;}.cls-3{font-size:19.7px;fill:#1d1d1b;font-family:SegoeScript, Segoe Script;}</style></defs><path class="cls-1" d="M36.58,1.16C23.49,6.27,21.26,9.53,21.47,11.53s2.71,2.74,13.1,8.69c9.09,5.21,11.77,7.24,11.75,9.69,0,2-1.87,3.7-3.47,4.79a30.37,30.37,0,0,1-5.93,2.23c-7.18,1.87-17.85,1.83-19.14-1.67-1.89-5.1,16.93-15.36,27.87-19.72,4.7-1.88,9.74-3.38,12.76-1,2.51,2,3.06,6.2,3.13,6.8.55,4.21-1.3,6.58.23,8.58,1,1.29,2.7,1.54,3.92,1.67,8.94,1,18.79-1.4,27.64-2.23,3.13-.29,5.29-.3,9.63-.33a161.45,161.45,0,0,1,22.72,1.45"/><path class="cls-1" d="M70.27,16A46.22,46.22,0,0,0,84.6,14.76c2.6-.66,4.82-1.52,5.94-3.56.19-.36,1.08-2,.44-3.23-1.13-2.22-6.76-2.51-10.52-.12-2.68,1.71-5.84,5.71-4.36,9.92,1,3,3.24,5.36,8.28,5.36,8.42-.67,16.2-1.34,24.63-2"/><path class="cls-2" d="M129.92,26.82c-1,1.37.27,4.47,2.35,6s5.61,2,6.83.34c.89-1.21.3-3.2-.45-4.35C136.64,25.73,131.22,25,129.92,26.82Z"/><text class="cls-3" transform="translate(0 59.76)">Saine Clothing</text></svg>