<?xml version="1.0" encoding="utf-8"?>
<!-- Generator: Adobe Illustrator 26.1.0, SVG Export Plug-In . SVG Version: 6.00 Build 0)  -->
<svg version="1.1" id="Layer_1" xmlns="http://www.w3.org/2000/svg" xmlns:xlink="http://www.w3.org/1999/xlink" x="0px" y="0px"
	 viewBox="0 0 101 48.5" style="enable-background:new 0 0 101 48.5;" xml:space="preserve">
<style type="text/css">
	.st0{fill:none;stroke:#7D4E24;stroke-width:2.5;stroke-linecap:round;stroke-miterlimit:10;}
	.st1{fill:none;stroke:#7D4E24;stroke-width:2.5;stroke-miterlimit:10;}
</style>
<g>
	<path class="st0" d="M16.6,1.2C6,5.4,4.2,8,4.3,9.6c0.2,1.6,2.2,2.2,10.6,7c7.3,4.2,9.5,5.9,9.5,7.8c0,1.6-1.5,3-2.8,3.9
		c-1.2,0.6-2.8,1.3-4.8,1.8C11,31.7,2.4,31.6,1.4,28.8C-0.2,24.7,15,16.4,23.9,12.9c3.8-1.5,7.9-2.7,10.3-0.8c2,1.6,2.5,5,2.5,5.5
		c0.4,3.4-1.1,5.3,0.2,6.9c0.8,1,2.2,1.2,3.2,1.4c7.2,0.8,15.2-1.1,22.3-1.8c2.5-0.2,4.3-0.2,7.8-0.3c7.7-0.1,14,0.6,18.4,1.2"/>
	<path class="st0" d="M43.8,13.2c5.3,0.3,9.2-0.4,11.6-1c2.1-0.5,3.9-1.2,4.8-2.9c0.2-0.3,0.9-1.6,0.4-2.6C59.6,5,55,4.7,52,6.7
		c-2.2,1.4-4.7,4.6-3.5,8c0.8,2.4,2.6,4.3,6.7,4.3c6.8-0.5,13.1-1.1,19.9-1.6"/>
	<path class="st1" d="M92,22c-0.8,1.1,0.2,3.6,1.9,4.9c1.7,1.3,4.5,1.6,5.5,0.3c0.7-1,0.2-2.6-0.4-3.5C97.4,21.1,93,20.5,92,22z"/>
</g>
<g>
	<path d="M9.9,38.3c0,0,0,0.1,0,0.2c0,0.1,0,0.1,0,0.2c0,0.1,0,0.1-0.1,0.2c0,0.1-0.1,0.1-0.1,0.2c-0.1,0.1-0.3,0.2-0.5,0.2
		c0-0.3,0-0.5-0.1-0.6c0-0.1-0.1-0.1-0.2-0.2c-0.1-0.1-0.2-0.1-0.3-0.1c-0.1,0-0.2-0.1-0.3-0.1c-0.1,0-0.2,0-0.3,0
		c-0.2,0-0.4,0-0.5,0s-0.3,0-0.5,0c-0.2,0-0.3,0.1-0.5,0.1c-0.2,0-0.3,0.1-0.5,0.2c-0.1,0.1-0.3,0.1-0.4,0.2S5.2,38.9,5.1,39
		c-0.1,0.1-0.2,0.2-0.3,0.3c-0.1,0.1-0.1,0.2-0.2,0.4c0,0.1,0,0.2,0.1,0.4c0.1,0.1,0.2,0.3,0.3,0.4c0.1,0.1,0.3,0.2,0.4,0.4
		c0.2,0.1,0.3,0.2,0.5,0.2c0,0,0.1,0,0.2,0.1c0.1,0,0.2,0.1,0.4,0.1s0.2,0.1,0.4,0.1S7,41.4,7,41.5c0.9,0.2,1.5,0.5,1.9,0.8
		c0.4,0.3,0.6,0.7,0.6,1.1c0,0.1,0,0.3-0.1,0.4s-0.1,0.3-0.2,0.4c-0.1,0.1-0.2,0.2-0.3,0.4s-0.2,0.2-0.3,0.3
		c-0.1,0.1-0.2,0.2-0.4,0.3c-0.1,0.1-0.3,0.2-0.5,0.3c-0.2,0.1-0.3,0.2-0.5,0.2c-0.2,0.1-0.3,0.1-0.5,0.2c-0.2,0.1-0.4,0.1-0.5,0.2
		C6,46,5.9,46,5.7,46.1c-0.2,0-0.4,0.1-0.5,0.1c-0.2,0-0.3,0-0.5,0c-0.1,0-0.2,0-0.4,0c-0.2,0-0.3-0.1-0.5-0.1
		c-0.2-0.1-0.3-0.1-0.4-0.2c-0.1-0.1-0.2-0.1-0.2-0.2c0,0,0-0.1,0-0.2c0-0.1,0-0.1,0.1-0.2c0-0.1,0.1-0.1,0.1-0.2
		c0,0,0.1-0.1,0.1-0.1c0.1,0,0.2,0,0.2,0c0.1,0,0.2,0.1,0.3,0.1c0.1,0,0.2,0.1,0.4,0.1c0.2,0,0.3,0,0.6,0c0.2,0,0.5,0,0.7-0.1
		C6,45.1,6.2,45,6.5,45c0.2-0.1,0.5-0.2,0.7-0.3s0.4-0.2,0.6-0.3c0.1-0.1,0.2-0.1,0.3-0.2c0.1-0.1,0.2-0.1,0.3-0.2s0.2-0.2,0.2-0.3
		s0.1-0.2,0.1-0.3c0-0.1-0.1-0.3-0.3-0.4c-0.2-0.1-0.4-0.2-0.6-0.3c-0.2-0.1-0.4-0.1-0.6-0.2c-0.2-0.1-0.4-0.1-0.7-0.2
		s-0.6-0.2-0.9-0.3c-0.5-0.2-1-0.5-1.3-0.9c-0.4-0.4-0.5-0.8-0.5-1.4c0-0.3,0.1-0.5,0.2-0.7c0.2-0.2,0.4-0.5,0.7-0.6
		c0.3-0.2,0.6-0.4,0.9-0.5c0.4-0.2,0.7-0.3,1.1-0.4c0.1,0,0.2,0,0.3-0.1c0.1,0,0.2,0,0.3,0s0.2,0,0.3,0c0.1,0,0.2,0,0.3,0
		c0.1,0,0.2,0,0.3,0c0.1,0,0.3,0,0.4,0.1c0.1,0,0.3,0.1,0.4,0.1c0.1,0,0.2,0.1,0.3,0.1c0.2,0.1,0.3,0.2,0.5,0.4
		C9.9,38.1,9.9,38.2,9.9,38.3z"/>
	<path d="M19.3,41.1c0,0.1,0,0.3-0.1,0.4c-0.1,0.1-0.2,0.3-0.3,0.4c-0.2,0.3-0.5,0.6-0.8,0.9c-0.3,0.3-0.5,0.5-0.8,0.8
		c-0.3,0.3-0.6,0.4-0.8,0.6c-0.3,0.1-0.5,0.2-0.8,0.2c-0.1,0-0.2,0-0.3-0.1s-0.2-0.1-0.3-0.2C15.1,44,15,43.9,15,43.8
		c-0.1-0.1-0.1-0.2-0.1-0.3c0-0.1,0-0.1-0.1-0.2c0-0.1,0-0.1,0-0.2c0-0.1,0-0.1-0.1-0.2c0,0,0-0.1-0.1-0.1c0,0,0,0-0.1,0.1
		c0,0-0.1,0.1-0.2,0.2c-0.1,0.1-0.1,0.2-0.2,0.3c-0.1,0.1-0.2,0.2-0.2,0.3c-0.1,0.1-0.1,0.2-0.2,0.3c-0.1,0.1-0.1,0.1-0.1,0.2
		c-0.1,0.1-0.3,0.3-0.4,0.4c-0.2,0.1-0.3,0.3-0.5,0.4c-0.2,0.1-0.3,0.2-0.4,0.3c-0.1,0.1-0.2,0.1-0.3,0.1c-0.1,0-0.3,0-0.4-0.1
		c-0.1,0-0.3-0.1-0.4-0.2c-0.1-0.1-0.2-0.2-0.3-0.3s-0.1-0.3-0.1-0.5c0-0.3,0.1-0.6,0.2-1s0.3-0.7,0.4-1.1c0.2-0.4,0.4-0.7,0.6-1.1
		c0.2-0.3,0.5-0.6,0.8-0.9c0.3-0.3,0.6-0.5,1-0.6c0.3-0.1,0.7-0.2,1-0.2c0.1,0,0.1,0,0.2,0c0,0,0.1,0.1,0.1,0.1s0.1,0.1,0.1,0.1
		s0.1,0.1,0.1,0.2c0,0,0,0.1,0.1,0.1c0,0,0.1,0.1,0.2,0.1c0.1,0,0.1,0.1,0.1,0.1c0,0,0.1,0.1,0.1,0.1c0,0.1,0,0.2,0,0.3
		s-0.1,0.2-0.1,0.3c0,0.1-0.1,0.3-0.1,0.4c0,0.2,0,0.3,0,0.6c0,0.1,0,0.3,0,0.5s0.1,0.3,0.1,0.5c0.1,0.2,0.1,0.3,0.2,0.4
		c0.1,0.1,0.2,0.2,0.3,0.2c0.1,0,0.3,0,0.4-0.1c0.1-0.1,0.3-0.2,0.4-0.3c0.4-0.3,0.7-0.6,1.1-1c0.3-0.4,0.7-0.7,1-1.1
		c0.1-0.1,0.1-0.1,0.2-0.1C19.2,40.8,19.3,40.9,19.3,41.1z M14.8,40.4C14.8,40.4,14.8,40.4,14.8,40.4c0-0.1,0-0.1-0.1-0.2
		s-0.1-0.1-0.1-0.1c0,0-0.1,0-0.1,0h0c-0.1,0-0.3,0.1-0.5,0.1c-0.2,0.1-0.3,0.2-0.5,0.4c-0.2,0.2-0.4,0.4-0.6,0.6
		c-0.2,0.3-0.4,0.6-0.6,0.9c-0.1,0.1-0.1,0.2-0.2,0.4S12,42.8,11.9,43c-0.1,0.2-0.1,0.3-0.2,0.5c0,0.2-0.1,0.4-0.1,0.6
		c0,0.1,0,0.2,0.1,0.3c0.1,0.1,0.2,0.1,0.3,0.1c0.1,0,0.2-0.1,0.4-0.2c0.2-0.1,0.3-0.2,0.5-0.4s0.4-0.4,0.5-0.6s0.4-0.5,0.5-0.7
		c0.2-0.2,0.3-0.5,0.4-0.7s0.2-0.4,0.2-0.6c0-0.1,0-0.1,0-0.2c0-0.1,0-0.2,0-0.2c0-0.1,0-0.2,0-0.2C14.8,40.5,14.8,40.4,14.8,40.4z"
		/>
	<path d="M24.7,41.9L24.7,41.9c0,0.1,0,0.2-0.1,0.3s-0.2,0.3-0.3,0.5c-0.1,0.2-0.3,0.4-0.4,0.6s-0.3,0.4-0.5,0.6
		c-0.2,0.2-0.4,0.5-0.7,0.7c-0.2,0.2-0.5,0.4-0.8,0.6c-0.5,0.4-1,0.6-1.4,0.6c-0.5,0-0.8-0.2-1.1-0.5c-0.3-0.3-0.4-0.7-0.5-1.1
		c-0.1-0.4-0.1-0.9-0.1-1.4c0-0.2,0-0.5,0.1-0.9c0-0.2,0-0.4,0.1-0.5c0-0.1,0-0.3,0.1-0.4c0.1-0.2,0.2-0.3,0.3-0.5
		c0.2-0.1,0.4-0.2,0.6-0.2c0.1,0,0.2,0.1,0.2,0.3c0,0.1,0,0.3,0,0.4s-0.1,0.3-0.1,0.5c-0.1,0.3-0.1,0.6-0.1,0.8c0,0.2,0,0.4,0,0.6
		c0,0.4,0.1,0.8,0.2,1.2c0.1,0.4,0.3,0.6,0.6,0.6c0.3,0,0.6-0.1,1-0.3c0.2-0.1,0.4-0.2,0.6-0.4c0.2-0.1,0.4-0.3,0.6-0.4
		c0.2-0.2,0.4-0.3,0.6-0.5s0.3-0.3,0.5-0.5s0.3-0.3,0.5-0.5c0.1-0.1,0.2-0.3,0.3-0.4c0,0,0,0,0-0.1c0,0,0-0.1,0.1-0.1l0,0
		c0,0,0.1,0,0.1,0c0,0,0,0.1,0.1,0.1C24.7,41.8,24.7,41.9,24.7,41.9z M20.9,37.2c0,0.2-0.1,0.5-0.2,0.6c-0.1,0.2-0.3,0.3-0.6,0.3
		c-0.2,0-0.3,0-0.5-0.1c-0.2,0-0.3-0.1-0.3-0.2c0-0.2,0.1-0.4,0.2-0.5s0.3-0.3,0.4-0.4c0.1-0.1,0.2-0.1,0.3-0.1c0.2,0,0.4,0,0.5,0.1
		C20.9,36.9,20.9,37,20.9,37.2z"/>
	<path d="M33.7,42.4C33.7,42.4,33.7,42.4,33.7,42.4C33.7,42.4,33.7,42.4,33.7,42.4c0.1,0.1,0.1,0.2,0,0.2c0,0.1-0.1,0.1-0.1,0.2
		c0,0.1-0.1,0.2-0.2,0.2c-0.1,0.1-0.1,0.2-0.2,0.2c-0.2,0.1-0.4,0.3-0.6,0.4c-0.2,0.1-0.4,0.2-0.7,0.3s-0.5,0.2-0.7,0.2
		c-0.3,0.1-0.5,0.1-0.8,0.1c-0.3,0-0.5,0-0.7-0.1s-0.4-0.2-0.5-0.3s-0.3-0.3-0.4-0.5c-0.1-0.2-0.2-0.4-0.2-0.5s-0.1-0.4-0.2-0.5
		c0-0.2-0.1-0.3-0.1-0.5c0-0.1,0-0.2-0.1-0.3c0-0.1,0-0.1-0.1-0.1c-0.1,0-0.2,0.1-0.3,0.2c-0.1,0.1-0.2,0.2-0.3,0.4
		c-0.1,0.2-0.2,0.4-0.3,0.6s-0.2,0.5-0.4,0.7c-0.1,0.2-0.3,0.5-0.4,0.7c-0.1,0.2-0.3,0.4-0.4,0.6s-0.3,0.3-0.4,0.4
		c-0.2,0.1-0.3,0.2-0.5,0.2c-0.2,0-0.3-0.1-0.4-0.2c-0.1-0.1-0.2-0.3-0.2-0.5c-0.1-0.2-0.1-0.4-0.1-0.7s0-0.5,0-0.7
		c0-0.2,0-0.4,0-0.6c0-0.2,0-0.3,0-0.5c0-0.1,0-0.1,0-0.1s0-0.1,0-0.1c0,0,0-0.1,0-0.1s0-0.1,0-0.1c0-0.1,0-0.3,0.1-0.4
		c0-0.1,0.1-0.2,0.1-0.3s0.1-0.2,0.2-0.2c0.1-0.1,0.1-0.1,0.2-0.1c0.1,0,0.1,0,0.2,0c0.1,0,0.1,0.1,0.2,0.1c0,0.1,0.1,0.1,0.1,0.2
		s0,0.2,0,0.4c0,0.2,0,0.4,0,0.6c0,0.2,0,0.5-0.1,0.7c0,0.2,0,0.4-0.1,0.7c0,0.2,0,0.4,0,0.5c0,0.2,0,0.3,0.1,0.3
		c0.1,0,0.2,0,0.3-0.1c0.1-0.1,0.2-0.2,0.3-0.3s0.2-0.3,0.3-0.5s0.2-0.4,0.3-0.6c0.2-0.4,0.3-0.7,0.5-1c0.2-0.3,0.3-0.5,0.5-0.7
		s0.4-0.3,0.6-0.4s0.4-0.1,0.7-0.1c0,0,0.1,0,0.1,0c0,0,0.1,0.1,0.1,0.1s0,0.1,0.1,0.2c0,0.1,0,0.1,0,0.2c0,0.3,0,0.6,0,0.9
		s0.1,0.5,0.1,0.7c0.1,0.2,0.1,0.4,0.2,0.5s0.2,0.3,0.3,0.4c0,0,0.1,0.1,0.2,0.1s0.2,0.1,0.3,0.1c0.1,0,0.2,0,0.3,0.1
		c0.1,0,0.2,0,0.3,0c0.1,0,0.2,0,0.4,0c0.2,0,0.3-0.1,0.5-0.1c0.2,0,0.4-0.1,0.6-0.2c0.2-0.1,0.4-0.2,0.6-0.3c0.1,0,0.1-0.1,0.2-0.1
		c0,0,0.1-0.1,0.2-0.1c0.1,0,0.1-0.1,0.2-0.1C33.5,42.5,33.6,42.5,33.7,42.4z"/>
	<path d="M38.6,42.8c0,0.1,0,0.3-0.1,0.4c-0.1,0.2-0.2,0.3-0.4,0.5c-0.2,0.2-0.4,0.4-0.7,0.6c-0.3,0.2-0.5,0.4-0.8,0.5
		c-0.3,0.1-0.5,0.2-0.8,0.3c-0.3,0.1-0.5,0.1-0.8,0.1c-0.6,0-1.1-0.2-1.4-0.6c-0.3-0.4-0.5-1-0.5-1.7c0-0.2,0-0.5,0.1-0.7
		c0-0.2,0.1-0.5,0.2-0.7c0.1-0.2,0.2-0.5,0.3-0.7c0.1-0.2,0.3-0.4,0.4-0.6c0.1-0.1,0.2-0.2,0.3-0.4c0.1-0.1,0.3-0.2,0.4-0.3
		c0.2-0.1,0.3-0.2,0.5-0.2c0.2-0.1,0.4-0.1,0.6-0.1c0.2,0,0.3,0,0.4,0.1c0.1,0.1,0.2,0.1,0.3,0.2s0.1,0.2,0.2,0.3
		c0,0.1,0.1,0.2,0.1,0.3c0,0.2-0.1,0.5-0.2,0.7c-0.1,0.2-0.3,0.5-0.5,0.7s-0.5,0.5-0.8,0.7c-0.3,0.2-0.7,0.5-1.1,0.7
		c-0.1,0-0.1,0.1-0.2,0.1S34,43.3,34,43.3c0,0.1,0,0.2,0,0.4s0.1,0.2,0.2,0.3c0.1,0.1,0.2,0.2,0.3,0.3c0.1,0.1,0.3,0.1,0.5,0.1
		c0.3,0,0.5,0,0.8-0.1c0.3-0.1,0.6-0.2,0.8-0.4s0.5-0.3,0.8-0.5c0.3-0.2,0.5-0.4,0.7-0.7c0.1-0.1,0.2-0.2,0.3-0.2c0,0,0.1,0,0.1,0.1
		S38.6,42.7,38.6,42.8z M35.9,40.3c0,0,0-0.1,0-0.1c0,0-0.1-0.1-0.1-0.1c0,0-0.1,0-0.1-0.1c0,0-0.1,0-0.1,0c-0.2,0-0.3,0.1-0.5,0.2
		c-0.2,0.1-0.3,0.3-0.5,0.5c-0.2,0.2-0.3,0.5-0.4,0.8c-0.1,0.3-0.2,0.6-0.2,1c0.1,0,0.1-0.1,0.2-0.1c0.1-0.1,0.2-0.1,0.3-0.2
		c0.1-0.1,0.2-0.2,0.3-0.2c0.1-0.1,0.2-0.2,0.3-0.2c0.2-0.1,0.3-0.3,0.4-0.4c0.1-0.1,0.2-0.2,0.3-0.3s0.1-0.2,0.1-0.3
		S35.9,40.4,35.9,40.3z"/>
	<path d="M52.7,41.9c0,0.2-0.2,0.5-0.5,0.9c-0.1,0.1-0.2,0.2-0.3,0.3c-0.1,0.1-0.2,0.2-0.4,0.3c-0.1,0.1-0.3,0.2-0.4,0.3
		c-0.1,0.1-0.3,0.2-0.4,0.3c-0.4,0.3-0.8,0.6-1.2,0.8c-0.4,0.3-0.8,0.5-1.2,0.7c-0.4,0.2-0.8,0.3-1.2,0.5c-0.4,0.1-0.8,0.2-1.2,0.2
		c-0.4,0-0.8-0.1-1.1-0.2c-0.3-0.1-0.6-0.3-0.8-0.5s-0.4-0.5-0.5-0.8c-0.1-0.3-0.1-0.7-0.1-1c0-0.3,0-0.7,0.1-1
		c0.1-0.4,0.2-0.7,0.3-1c0.1-0.3,0.3-0.7,0.5-1c0.2-0.3,0.4-0.6,0.6-0.9c0.1-0.2,0.3-0.3,0.5-0.5c0.2-0.2,0.3-0.3,0.5-0.5
		c0.2-0.2,0.4-0.3,0.6-0.4c0.2-0.1,0.4-0.3,0.6-0.4c0.1-0.1,0.3-0.1,0.5-0.2s0.4-0.2,0.6-0.3c0.2-0.1,0.4-0.1,0.6-0.2
		s0.4-0.1,0.5-0.1c0.2,0,0.4,0,0.6,0s0.3,0.1,0.4,0.2c0.1,0,0.1,0.1,0.2,0.2c0.1,0.1,0.1,0.2,0.2,0.3s0.1,0.2,0.1,0.3
		c0,0.1,0.1,0.2,0.1,0.2c0,0.1,0,0.2-0.1,0.3c-0.1,0.1-0.1,0.3-0.2,0.4s-0.2,0.3-0.2,0.4c-0.1,0.1-0.1,0.2-0.2,0.2
		c-0.2,0.2-0.3,0.3-0.5,0.3c-0.2,0-0.3,0-0.4-0.1c-0.1-0.1-0.1-0.2-0.1-0.4c0,0,0-0.1,0.1-0.2s0.2-0.2,0.3-0.4s0.2-0.3,0.3-0.4
		c0.1-0.1,0.1-0.2,0.1-0.2c-0.1-0.1-0.2-0.1-0.3-0.1s-0.2,0-0.3,0c-0.1,0-0.3,0-0.5,0.1s-0.4,0.1-0.6,0.2s-0.4,0.2-0.6,0.3
		c-0.2,0.1-0.4,0.2-0.5,0.3c-0.4,0.3-0.8,0.7-1.1,1c-0.3,0.4-0.6,0.8-0.8,1.2c-0.1,0.2-0.2,0.4-0.3,0.6c-0.1,0.2-0.1,0.4-0.2,0.6
		s-0.1,0.4-0.1,0.6c0,0.2,0,0.4,0,0.6c0,0.2,0,0.4,0.1,0.6c0.1,0.2,0.1,0.4,0.3,0.5c0.1,0.1,0.3,0.3,0.5,0.3s0.4,0.1,0.7,0.1
		c0.3,0,0.6,0,0.9-0.1s0.6-0.2,1-0.3s0.6-0.3,1-0.5s0.6-0.4,0.9-0.6c0.3-0.2,0.6-0.4,0.8-0.6c0.3-0.2,0.5-0.4,0.7-0.6
		c0.1-0.1,0.2-0.2,0.3-0.2s0.2-0.2,0.3-0.3s0.2-0.2,0.3-0.3s0.2-0.2,0.2-0.2C52.7,41.6,52.7,41.8,52.7,41.9z"/>
	<path d="M57.5,43.3c0,0,0,0.1-0.1,0.2c0,0.1-0.1,0.2-0.1,0.3s-0.1,0.2-0.2,0.3s-0.1,0.2-0.2,0.2c-0.2,0.2-0.3,0.4-0.5,0.6
		c-0.2,0.2-0.4,0.4-0.6,0.5s-0.4,0.3-0.7,0.3s-0.4,0.1-0.6,0.1c-0.3,0-0.6-0.1-0.8-0.2c-0.2-0.1-0.4-0.3-0.6-0.5s-0.2-0.5-0.3-0.9
		c-0.1-0.3-0.1-0.7-0.1-1.2c0-0.3,0-0.6,0-0.9c0-0.3,0.1-0.7,0.1-1c0-0.4,0.1-0.7,0.2-1.1c0.1-0.4,0.1-0.7,0.2-1
		c0.1-0.3,0.1-0.6,0.2-0.9c0.1-0.3,0.2-0.5,0.2-0.7c0.1-0.2,0.2-0.4,0.2-0.5c0.1-0.1,0.2-0.2,0.2-0.2c0.1,0,0.2,0,0.2,0.1
		c0.1,0.1,0.1,0.2,0.2,0.2c0,0.4-0.1,0.8-0.2,1.3c-0.1,0.5-0.3,1.2-0.4,1.9c0,0.2-0.1,0.4-0.1,0.6c0,0.2-0.1,0.4-0.1,0.7
		s0,0.4,0,0.6c0,0.2,0,0.4,0,0.6c0,0.7,0.1,1.2,0.3,1.5c0.2,0.4,0.5,0.5,0.9,0.5c0.2,0,0.4,0,0.6-0.1c0.2-0.1,0.4-0.2,0.5-0.3
		c0.2-0.1,0.3-0.2,0.5-0.4c0.2-0.1,0.3-0.3,0.4-0.4c0,0,0.1-0.1,0.2-0.2c0.1-0.1,0.1-0.1,0.2-0.2c0.1-0.1,0.1-0.1,0.2-0.2
		c0,0,0.1-0.1,0.1-0.1C57.5,43.2,57.5,43.2,57.5,43.3z"/>
	<path d="M62,42.2c0,0.1,0,0.2-0.1,0.3s-0.1,0.2-0.1,0.3c0,0.1-0.1,0.2-0.1,0.3c-0.1,0.1-0.2,0.3-0.3,0.4S61.2,43.9,61,44
		s-0.4,0.3-0.7,0.5c-0.2,0.2-0.5,0.3-0.7,0.5c-0.2,0.1-0.5,0.2-0.7,0.3s-0.4,0.1-0.6,0.1c-0.3,0-0.5,0-0.7-0.1
		c-0.2-0.1-0.4-0.2-0.5-0.3s-0.2-0.3-0.3-0.5s-0.1-0.4-0.1-0.5c0-0.1,0-0.3,0-0.4c0-0.2,0.1-0.3,0.1-0.5c0-0.2,0.1-0.3,0.2-0.5
		c0.1-0.2,0.1-0.3,0.2-0.5c0.1-0.2,0.2-0.3,0.2-0.4s0.2-0.3,0.2-0.4c0.1-0.2,0.3-0.3,0.5-0.5c0.2-0.2,0.4-0.3,0.6-0.4
		c0.2-0.1,0.5-0.2,0.7-0.3s0.5-0.1,0.8-0.1c0.2,0,0.4,0.1,0.6,0.2s0.4,0.2,0.5,0.4s0.3,0.4,0.4,0.6c0.1,0.2,0.1,0.5,0.1,0.7
		C62.1,41.9,62.1,42,62,42.2z M60.8,41.1c-0.2-0.2-0.5-0.3-0.9-0.3c-0.1,0-0.3,0-0.4,0.1c-0.1,0.1-0.3,0.2-0.4,0.3
		c-0.1,0.1-0.2,0.2-0.4,0.3c-0.1,0.1-0.2,0.2-0.3,0.3c-0.1,0.1-0.2,0.2-0.2,0.4s-0.2,0.4-0.3,0.5c-0.1,0.2-0.1,0.4-0.2,0.6
		c-0.1,0.2-0.1,0.4-0.1,0.5c0,0.1,0,0.2,0.1,0.3c0,0.1,0.1,0.2,0.1,0.2c0.1,0.1,0.1,0.1,0.2,0.2s0.2,0.1,0.3,0.1
		c0.1,0,0.3,0,0.4-0.1c0.2-0.1,0.4-0.2,0.6-0.3c0.2-0.1,0.4-0.3,0.6-0.4c0.2-0.2,0.4-0.3,0.6-0.5c0.2-0.2,0.3-0.4,0.4-0.6
		c0.1-0.2,0.2-0.4,0.2-0.6C61.2,41.6,61.1,41.3,60.8,41.1z M70,39c0,0,0.1,0,0.1,0.1c0,0,0,0.1,0,0.1c0,0.1,0,0.2-0.1,0.3
		c-0.1,0.1-0.1,0.2-0.2,0.3c-0.1,0.1-0.2,0.2-0.3,0.3c-0.1,0.1-0.3,0.2-0.4,0.2c-0.2,0.1-0.4,0.2-0.7,0.3c-0.3,0.1-0.5,0.2-0.8,0.2
		c-0.3,0.1-0.6,0.1-0.9,0.2c-0.3,0-0.6,0.1-0.9,0.1c0,0,0,0-0.1,0.1s0,0.2-0.1,0.3c0,0.1,0,0.2-0.1,0.4c0,0.1,0,0.3-0.1,0.4
		c0,0.1,0,0.2-0.1,0.3c0,0.1,0,0.2,0,0.2c0,0.2-0.1,0.4-0.1,0.5c0,0.2,0,0.3-0.1,0.4s0,0.3,0,0.4s0,0.3,0,0.4c0,0.1,0,0.2,0,0.2
		c0,0.1,0,0.1,0,0.2c0,0.1,0,0.1,0,0.2c0,0.1,0,0.1,0,0.2c0,0,0,0.1-0.1,0.1c0,0-0.1,0.1-0.2,0.1s-0.1,0.1-0.2,0.1
		c-0.1,0-0.1,0-0.1,0c-0.1,0-0.2,0-0.2-0.1c-0.1-0.1-0.1-0.1-0.1-0.2c0-0.1-0.1-0.2-0.1-0.2c0-0.1,0-0.1,0-0.2c0-0.3,0-0.6,0.1-0.9
		c0-0.3,0.1-0.6,0.2-0.9c0.1-0.3,0.1-0.6,0.2-0.9s0.1-0.7,0.2-1c0-0.1-0.1-0.1-0.1-0.1c-0.1,0-0.1,0-0.2,0c0,0,0,0-0.1,0
		c0,0,0,0-0.1,0c0,0-0.1,0-0.1,0c-0.1,0-0.1,0-0.2,0c-0.1,0-0.2,0-0.3,0c-0.1,0-0.2,0-0.3,0c-0.1,0-0.2,0-0.2,0c-0.1,0-0.1,0-0.1,0
		c-0.1,0-0.1,0-0.2-0.1c-0.1,0-0.1-0.1-0.2-0.1c0-0.1-0.1-0.1-0.1-0.2c0-0.1,0-0.1,0-0.1c0-0.1,0-0.1,0-0.2c0-0.1,0.1-0.1,0.1-0.1
		c0,0,0.1-0.1,0.1-0.1s0.1,0,0.2,0c0.1,0,0.1,0,0.2,0s0.2,0,0.3,0s0.2,0,0.3,0c0.1,0,0.2,0,0.3,0c0.1,0,0.2,0,0.3,0
		c0.1,0,0.1,0,0.2,0c0.1,0,0.2-0.1,0.3-0.3c0.1-0.1,0.2-0.4,0.2-0.6c0-0.1,0-0.2,0.1-0.3c0-0.1,0-0.3,0.1-0.4s0.1-0.3,0.1-0.5
		c0-0.2,0.1-0.3,0.1-0.4c0-0.1,0-0.3,0.1-0.4c0-0.1,0-0.2,0-0.2c0,0,0-0.1,0.1-0.2c0-0.1,0.1-0.1,0.1-0.2c0.1-0.1,0.1-0.1,0.2-0.1
		c0.1,0,0.1-0.1,0.1-0.1c0.1,0,0.1,0,0.2,0.1c0.1,0,0.1,0.1,0.1,0.1c0,0.1,0.1,0.1,0.1,0.2c0,0.1,0,0.1,0,0.1c0,0,0,0.1,0,0.1
		c0,0.1,0,0.1,0,0.2c0,0.1,0,0.2-0.1,0.3c0,0.1,0,0.2-0.1,0.3s0,0.2,0,0.3s0,0.1,0,0.2c-0.1,0.2-0.1,0.4-0.1,0.6
		c0,0.2-0.1,0.3-0.1,0.4c0,0.1,0,0.2,0,0.2c0,0.1,0,0.1,0,0.2c0,0.1,0,0.1,0,0.2c0,0,0.1,0,0.1,0.1c0,0,0.1,0,0.2,0
		c0.1,0,0.2,0,0.4-0.1c0.2,0,0.4-0.1,0.6-0.1c0.2,0,0.4-0.1,0.6-0.1c0.2,0,0.4-0.1,0.6-0.1c0.2-0.1,0.4-0.1,0.5-0.2
		c0.1-0.1,0.3-0.1,0.4-0.2c0.1-0.1,0.2-0.1,0.3-0.2s0.2-0.1,0.2-0.1C69.9,39,69.9,39,70,39z"/>
	<path d="M79.1,41.2c0,0.1-0.1,0.2-0.2,0.4c0,0.1-0.1,0.1-0.2,0.2c-0.1,0.1-0.1,0.2-0.2,0.3s-0.1,0.2-0.2,0.2
		c-0.1,0.1-0.1,0.1-0.2,0.2c-0.2,0.2-0.5,0.5-0.7,0.7c-0.2,0.2-0.5,0.5-0.8,0.6c-0.3,0.2-0.5,0.4-0.8,0.5s-0.6,0.2-0.9,0.2
		c-0.4,0-0.8-0.2-1-0.6c-0.1-0.2-0.2-0.4-0.3-0.7c-0.1-0.3-0.1-0.6-0.2-0.9c0-0.2,0-0.3-0.1-0.5c0-0.1,0-0.3-0.1-0.4
		c0-0.1-0.1-0.2-0.1-0.2s-0.1-0.1-0.2-0.1c-0.1,0-0.2,0-0.3,0.1c-0.1,0.1-0.2,0.2-0.4,0.3c-0.1,0.1-0.3,0.3-0.4,0.4
		c-0.1,0.2-0.3,0.3-0.4,0.5c-0.1,0.1-0.2,0.3-0.3,0.4s-0.2,0.4-0.4,0.6s-0.3,0.4-0.4,0.6s-0.3,0.4-0.4,0.6c0,0-0.1,0.1-0.1,0.2
		S69.9,45,69.9,45c-0.1,0.1-0.2,0.1-0.3,0.2c-0.1,0.1-0.1,0.1-0.2,0.1c-0.1,0-0.2,0-0.2,0c-0.1,0-0.1,0-0.2-0.1
		c-0.1,0-0.1-0.1-0.1-0.1s-0.1-0.1-0.1-0.2c0,0,0-0.1,0-0.2s0-0.2,0.1-0.3c0-0.1,0-0.2,0.1-0.3s0-0.2,0.1-0.2c0.1-0.3,0.1-0.6,0.2-1
		c0.1-0.3,0.1-0.7,0.2-1s0.1-0.7,0.2-1c0.1-0.3,0.1-0.6,0.1-0.9c0-0.1,0-0.2,0-0.3c0-0.1,0-0.3,0.1-0.5c0-0.2,0-0.3,0.1-0.5
		c0-0.2,0-0.3,0.1-0.5c0-0.2,0-0.3,0.1-0.5c0-0.1,0-0.3,0-0.4c0-0.1,0-0.2,0.1-0.3c0-0.1,0.1-0.2,0.1-0.3s0.1-0.2,0.2-0.2
		c0.1-0.1,0.1-0.1,0.2-0.1c0.1,0,0.1,0,0.2,0c0.1,0,0.1,0.1,0.2,0.1s0.1,0.1,0.1,0.2s0.1,0.2,0.1,0.3c0,0.3,0,0.6-0.1,0.9
		s-0.1,0.6-0.2,0.9c-0.1,0.3-0.1,0.6-0.2,0.9c-0.1,0.3-0.1,0.5-0.2,0.8c0,0.1,0,0.2-0.1,0.3s-0.1,0.3-0.1,0.5s-0.1,0.4-0.1,0.6
		c0,0.2-0.1,0.4-0.1,0.6c0,0.2-0.1,0.4-0.1,0.6c0,0.2,0,0.3,0,0.5c0,0,0,0,0,0.1c0,0,0,0,0.1,0h0c0.2-0.3,0.3-0.5,0.5-0.8
		s0.4-0.5,0.5-0.8s0.4-0.5,0.5-0.7c0.2-0.2,0.3-0.4,0.5-0.6c0.3-0.3,0.5-0.5,0.8-0.6c0.3-0.2,0.5-0.2,0.8-0.2c0,0,0.1,0,0.1,0
		c0.1,0,0.1,0.1,0.2,0.1c0.1,0,0.1,0.1,0.2,0.1s0.1,0.1,0.1,0.2c0.1,0.2,0.1,0.4,0.2,0.6c0,0.2,0.1,0.4,0.1,0.7
		c0,0.2,0.1,0.4,0.1,0.7c0,0.2,0.1,0.4,0.1,0.6c0,0.2,0.1,0.3,0.2,0.4s0.2,0.1,0.3,0.1c0.2,0,0.4,0,0.6-0.1c0.2-0.1,0.4-0.2,0.6-0.3
		c0.2-0.1,0.4-0.3,0.6-0.4s0.3-0.3,0.5-0.4c0.1-0.1,0.3-0.2,0.4-0.4s0.3-0.3,0.5-0.5C78.7,41.1,79,41,79,41S79.1,41,79.1,41.2z"/>
	<path d="M84.5,41.9L84.5,41.9c0,0.1,0,0.2-0.1,0.3s-0.2,0.3-0.3,0.5s-0.3,0.4-0.4,0.6s-0.3,0.4-0.5,0.6c-0.2,0.2-0.4,0.5-0.7,0.7
		c-0.2,0.2-0.5,0.4-0.8,0.6c-0.5,0.4-1,0.6-1.4,0.6c-0.5,0-0.8-0.2-1.1-0.5c-0.3-0.3-0.4-0.7-0.5-1.1c-0.1-0.4-0.1-0.9-0.1-1.4
		c0-0.2,0-0.5,0.1-0.9c0-0.2,0-0.4,0.1-0.5c0-0.1,0-0.3,0.1-0.4c0.1-0.2,0.2-0.3,0.3-0.5c0.2-0.1,0.4-0.2,0.6-0.2
		c0.1,0,0.2,0.1,0.2,0.3c0,0.1,0,0.3,0,0.4c0,0.2-0.1,0.3-0.1,0.5c0,0.3-0.1,0.6-0.1,0.8c0,0.2,0,0.4,0,0.6c0,0.4,0.1,0.8,0.2,1.2
		c0.1,0.4,0.3,0.6,0.6,0.6c0.3,0,0.6-0.1,1-0.3c0.2-0.1,0.4-0.2,0.6-0.4s0.4-0.3,0.6-0.4c0.2-0.2,0.4-0.3,0.6-0.5s0.3-0.3,0.5-0.5
		s0.3-0.3,0.5-0.5c0.1-0.1,0.2-0.3,0.3-0.4c0,0,0,0,0-0.1c0,0,0-0.1,0.1-0.1l0,0c0,0,0.1,0,0.1,0c0,0,0,0.1,0.1,0.1
		C84.4,41.8,84.5,41.9,84.5,41.9z M80.7,37.2c0,0.2-0.1,0.5-0.2,0.6c-0.1,0.2-0.3,0.3-0.6,0.3c-0.2,0-0.3,0-0.5-0.1
		c-0.2,0-0.3-0.1-0.3-0.2c0-0.2,0.1-0.4,0.2-0.5s0.3-0.3,0.4-0.4c0.1-0.1,0.2-0.1,0.3-0.1c0.2,0,0.4,0,0.5,0.1S80.7,37,80.7,37.2z"
		/>
	<path d="M93.6,41.5c0,0.1,0,0.1,0,0.2c0,0.1-0.1,0.1-0.1,0.2c0,0.1-0.1,0.1-0.1,0.2c0,0.1-0.1,0.1-0.1,0.2
		c-0.1,0.2-0.2,0.3-0.4,0.5c-0.2,0.2-0.3,0.4-0.5,0.5s-0.3,0.3-0.5,0.5c-0.2,0.1-0.4,0.3-0.5,0.4c-0.1,0.1-0.3,0.2-0.4,0.3
		s-0.3,0.1-0.4,0.2c-0.1,0.1-0.3,0.1-0.4,0.1C90,45,89.8,45,89.7,45c-0.3,0-0.6-0.1-0.8-0.2c-0.1-0.1-0.2-0.2-0.3-0.3
		c-0.1-0.1-0.1-0.3-0.2-0.4s-0.1-0.3-0.1-0.5c0-0.2-0.1-0.3-0.1-0.5c0-0.2-0.1-0.4-0.1-0.6c0-0.2-0.1-0.3-0.1-0.4
		c0-0.1-0.1-0.2-0.1-0.3c-0.1-0.1-0.1-0.1-0.2-0.1c-0.1,0-0.1,0-0.2,0c-0.1,0-0.1,0-0.2,0.1c-0.1,0-0.1,0.1-0.2,0.2
		c-0.1,0.1-0.2,0.2-0.3,0.3c-0.1,0.1-0.2,0.3-0.4,0.5c-0.1,0.2-0.3,0.4-0.5,0.7c-0.1,0.1-0.2,0.3-0.3,0.4c-0.1,0.2-0.3,0.3-0.4,0.5
		c-0.1,0.1-0.3,0.3-0.4,0.4c-0.1,0.1-0.2,0.2-0.3,0.2c-0.3-0.1-0.5-0.5-0.5-1.3c0-0.2,0-0.5,0.1-0.9c0-0.2,0-0.4,0.1-0.6
		c0-0.2,0.1-0.4,0.1-0.6c0-0.2,0.1-0.4,0.2-0.6s0.1-0.4,0.2-0.5c0-0.1,0.1-0.1,0.1-0.2c0,0,0.1-0.1,0.1-0.1c0,0,0.1,0,0.1,0
		c0,0,0.1,0,0.1,0c0.1,0,0.1,0,0.2,0.1s0.1,0.2,0.1,0.3c0,0.1,0,0.2,0,0.3c0,0.1,0,0.2-0.1,0.2c0,0.1-0.1,0.2-0.1,0.3
		c0,0.1-0.1,0.2-0.1,0.3c0,0.1,0,0.2-0.1,0.3c0,0.1-0.1,0.3-0.1,0.4c0,0.1,0,0.3-0.1,0.4c0,0.1,0,0.2,0,0.3c0,0.1,0,0.1,0,0.2
		c0.1,0,0.3-0.2,0.5-0.5c0.1-0.2,0.3-0.3,0.4-0.5c0.2-0.2,0.3-0.4,0.5-0.6c0.1-0.2,0.3-0.3,0.4-0.5c0.1-0.1,0.3-0.3,0.4-0.4
		c0.1-0.1,0.3-0.2,0.4-0.3c0.2-0.1,0.3-0.1,0.5-0.1c0.2,0,0.4,0,0.5,0.1c0.1,0.1,0.2,0.2,0.3,0.4c0.1,0.2,0.1,0.3,0.2,0.5
		c0,0.2,0.1,0.4,0.1,0.7c0,0.2,0,0.4,0.1,0.6c0,0.2,0.1,0.4,0.1,0.6c0.1,0.2,0.2,0.3,0.3,0.4c0.1,0.1,0.3,0.2,0.5,0.2
		c0.2,0,0.3,0,0.5-0.1s0.4-0.2,0.6-0.3c0.2-0.1,0.4-0.3,0.6-0.5s0.4-0.4,0.7-0.6c0.1-0.1,0.2-0.2,0.3-0.3c0.1-0.1,0.2-0.3,0.3-0.4
		c0.1-0.1,0.2-0.2,0.3-0.3c0.1-0.1,0.2-0.1,0.2-0.1c0,0,0.1,0,0.1,0C93.6,41.4,93.6,41.5,93.6,41.5z"/>
	<path d="M97.4,40.2c0,0.1,0,0.1,0,0.2c0,0.1-0.1,0.2-0.1,0.4c0,0.2-0.1,0.3-0.1,0.6c0,0.2,0,0.5,0,0.9c0,0.1,0,0.2,0,0.5
		c0,0.3,0,0.6,0,1c0,0.9-0.1,1.7-0.3,2.3c-0.2,0.6-0.5,1.1-0.9,1.5c-0.1,0.1-0.2,0.2-0.4,0.3C95.3,47.9,95.2,48,95,48
		c-0.2,0.1-0.3,0.1-0.5,0.1c-0.2,0-0.4,0-0.6,0c-0.2,0-0.4,0-0.6-0.1C93.2,48,93,48,92.8,47.9c-0.2-0.1-0.4-0.2-0.6-0.3
		c-0.2-0.1-0.4-0.2-0.5-0.4s-0.3-0.2-0.3-0.3c-0.1-0.1-0.1-0.2-0.1-0.2c0-0.1,0-0.2,0.1-0.2c0-0.1,0.1-0.1,0.2-0.1
		c0.1,0,0.2,0,0.4,0.1c0.1,0.1,0.3,0.2,0.4,0.2c0.1,0.1,0.3,0.2,0.5,0.3s0.3,0.2,0.5,0.2s0.3,0.1,0.5,0.2s0.3,0.1,0.4,0.1
		c0.2,0,0.4,0,0.6-0.1c0.2-0.1,0.3-0.1,0.4-0.2s0.2-0.2,0.3-0.3c0.1-0.1,0.2-0.3,0.2-0.4c0.1-0.2,0.2-0.4,0.2-0.6s0.1-0.5,0.2-0.8
		s0.1-0.6,0.1-0.9c0-0.3,0-0.6,0-1c-0.2,0.2-0.4,0.4-0.7,0.6c-0.3,0.2-0.5,0.4-0.8,0.5c-0.3,0.2-0.6,0.3-0.9,0.4
		c-0.3,0.1-0.6,0.1-0.9,0.1c-0.2,0-0.3,0-0.4-0.1c-0.1-0.1-0.2-0.2-0.2-0.3c-0.1-0.1-0.1-0.2-0.1-0.4c0-0.1,0-0.2,0-0.3v0
		c0-0.1,0-0.3,0.1-0.4c0.1-0.2,0.1-0.3,0.2-0.5c0.1-0.2,0.2-0.4,0.3-0.5c0.1-0.2,0.2-0.3,0.3-0.5c0.2-0.2,0.4-0.5,0.6-0.8
		s0.5-0.5,0.8-0.7c0.3-0.2,0.6-0.4,0.9-0.5c0.3-0.1,0.6-0.2,1-0.2c0.2,0,0.3,0,0.4,0.1c0.1,0,0.2,0.1,0.3,0.1
		c0.1,0.1,0.2,0.1,0.2,0.2C97.4,40,97.4,40.1,97.4,40.2z M96.4,40.4c0,0-0.1,0-0.1-0.1c0,0-0.1,0-0.2,0c-0.1,0-0.3,0-0.4,0.1
		s-0.3,0.1-0.4,0.2c-0.3,0.2-0.5,0.4-0.7,0.6c-0.2,0.2-0.4,0.4-0.6,0.6c-0.1,0.1-0.1,0.2-0.2,0.3c-0.1,0.1-0.1,0.2-0.2,0.3
		c-0.1,0.1-0.1,0.3-0.2,0.4c-0.1,0.1-0.1,0.3-0.2,0.4s-0.1,0.3-0.1,0.4c0,0.1,0,0.2,0,0.3c0.1,0,0.2,0,0.3,0c0.1,0,0.2,0,0.3,0
		c0.1,0,0.2-0.1,0.3-0.1s0.2-0.1,0.3-0.1s0.2-0.1,0.4-0.2c0.1,0,0.2-0.1,0.3-0.2c0.1-0.1,0.2-0.2,0.4-0.2c0.1-0.1,0.3-0.2,0.4-0.3
		s0.2-0.2,0.4-0.3c0,0,0.1-0.1,0.1-0.2c0-0.1,0-0.2,0.1-0.3c0-0.1,0-0.3,0-0.4s0-0.3,0-0.5c0-0.2,0-0.3,0-0.4S96.4,40.5,96.4,40.4z"
		/>
</g>
</svg>
